<svg width="1280" height="720" viewBox="0 0 1280 720" fill="none" xmlns="http://www.w3.org/2000/svg">
<path fill-rule="evenodd" clip-rule="evenodd" d="M745.787 320.433C746.367 315.926 746.667 311.332 746.667 306.667C746.667 247.756 698.91 200 640 200C581.09 200 533.333 247.756 533.333 306.667C533.333 311.332 533.633 315.926 534.214 320.433C501.846 338.748 480 373.489 480 413.333C480 472.244 527.756 520 586.667 520C606.095 520 624.311 514.806 640 505.73C655.689 514.806 673.905 520 693.333 520C752.244 520 800 472.244 800 413.333C800 373.489 778.154 338.748 745.787 320.433Z" fill="#1C1C24"/>
<circle cx="693.333" cy="413.333" r="106.667" fill="#15C7FF" style="mix-blend-mode:lighten"/>
<ellipse cx="586.667" cy="413.333" rx="106.667" ry="106.667" fill="#15FFCC" style="mix-blend-mode:lighten"/>
<circle cx="640" cy="306.667" r="106.667" fill="#FF4D4D" style="mix-blend-mode:lighten"/>
</svg>
