<svg width="1024" height="1024" viewBox="0 0 1024 1024" fill="none" xmlns="http://www.w3.org/2000/svg">
<path fill-rule="evenodd" clip-rule="evenodd" d="M723.573 432.866C724.734 423.853 725.333 414.663 725.333 405.333C725.333 287.513 629.821 192 512 192C394.179 192 298.667 287.513 298.667 405.333C298.667 414.663 299.266 423.853 300.427 432.866C235.692 469.496 192 538.979 192 618.667C192 736.487 287.513 832 405.333 832C444.191 832 480.622 821.611 512 803.46C543.379 821.611 579.809 832 618.667 832C736.487 832 832 736.487 832 618.667C832 538.979 788.308 469.496 723.573 432.866Z" fill="#1C1C24"/>
<circle cx="618.667" cy="618.667" r="213.333" fill="#15C7FF" style="mix-blend-mode:lighten"/>
<circle cx="405.333" cy="618.667" r="213.333" fill="#15FFCC" style="mix-blend-mode:lighten"/>
<circle cx="512" cy="405.333" r="213.333" fill="#FF4D4D" style="mix-blend-mode:lighten"/>
</svg>
